HIERARCHY
ROOT Hips
{
   OFFSET 0.00000 0.00000 0.00000
   CHANNELS 6 Xposition Yposition Zposition Zrotation Xrotation Yrotation
   JOINT Spine
   {
      OFFSET 0.000000 10.701450 0.000000
      CHANNELS 3 Zrotation Xrotation Yrotation
      JOINT Spine1
      {
         OFFSET -0.000000 23.091659 0.114894
         CHANNELS 3 Zrotation Xrotation Yrotation
         JOINT HEad
         {
            OFFSET 0.000000 7.860744 0.010206
            CHANNELS 3 Zrotation Xrotation Yrotation
            End Site
            {
               OFFSET -0.261000 11.496780 2.262555
            }
         }
         JOINT LeftShoulder1
         {
            OFFSET 8.091000 -0.326025 -0.198000
            CHANNELS 3 Zrotation Xrotation Yrotation
            JOINT LeftArm
            {
               OFFSET 9.254430 -0.003042 0.289908
               CHANNELS 3 Zrotation Xrotation Yrotation
               JOINT LeftForeArm
               {
                  OFFSET 29.490208 0.089226 -1.281906
                  CHANNELS 3 Zrotation Xrotation Yrotation
                  JOINT LeftHand
                  {
                     OFFSET 24.807870 0.076824 0.919944
                     CHANNELS 3 Zrotation Xrotation Yrotation
                     End Site
                     {
                        OFFSET 15.069871 -0.540000 1.352619
                     }
                  }
               }
            }
         }
         JOINT RightShoulder
         {
            OFFSET -8.091000 -0.326025 -0.198000
            CHANNELS 3 Zrotation Xrotation Yrotation
            JOINT RightArm
            {
               OFFSET -9.254430 -0.003042 0.289908
               CHANNELS 3 Zrotation Xrotation Yrotation
               JOINT RightForeArm
               {
                  OFFSET -29.607386 0.089226 -1.281906
                  CHANNELS 3 Zrotation Xrotation Yrotation
                  JOINT RightHand
                  {
                     OFFSET -24.742889 0.076824 0.919944
                     CHANNELS 3 Zrotation Xrotation Yrotation
                     End Site
                     {
                        OFFSET -14.968080 -0.540000 1.352619
                     }
                  }
               }
            }
         }
      }
   }
   JOINT LeftUpLeg
   {
      OFFSET 8.051219 -7.800363 0.091485
      CHANNELS 3 Zrotation Xrotation Yrotation
      JOINT LeftLeg
      {
         OFFSET 0.000000 -39.980428 1.235430
         CHANNELS 3 Zrotation Xrotation Yrotation
         JOINT LeftFoot
         {
            OFFSET -0.228195 -37.883157 -1.314531
            CHANNELS 3 Zrotation Xrotation Yrotation
            JOINT LeftToes
            {
               OFFSET -0.036000 -3.973581 7.649189
               CHANNELS 3 Zrotation Xrotation Yrotation
               End Site
               {
                  OFFSET 0.072000 -0.042705 8.801811
               }
            }
         }
      }
   }
   JOINT RightUpLeg
   {
      OFFSET -8.051219 -7.800363 0.091485
      CHANNELS 3 Zrotation Xrotation Yrotation
      JOINT RightLeg
      {
         OFFSET 0.000000 -39.980428 1.235430
         CHANNELS 3 Zrotation Xrotation Yrotation
         JOINT RightFoot
         {
            OFFSET 0.228195 -37.883157 -1.314531
            CHANNELS 3 Zrotation Xrotation Yrotation
            JOINT RightToes
            {
               OFFSET 0.036000 -3.973581 7.649189
               CHANNELS 3 Zrotation Xrotation Yrotation
               End Site
               {
                  OFFSET -0.072000 -0.123705 8.801811
               }
            }
         }
      }
   }
}
MOTION
Frames: 10
Frame Time: 0.016670
41.621613 90.318040 -117.433851 4.655798 -6.354296 -28.687228 -11.421443 21.311425 183.043387 -4.274875 9.795784 -148.276140 -43.548320 6.899507 -0.107371 8.646767 100.086170 -14.051793 3.726696 -104.800599 -43.258979 27.091541 -22.218397 -39.847248 -61.510457 -60.588026 -114.798104 261.641215 323.927650 237.146627 497.767685 -19.740480 704.794052 75.573188 128.257825 -17.668388 -27.287004 -26.174690 17.186209 18.034737 -7.461089 -59.590204 -18.696075 -5.010928 61.590001 -35.520211 6.172724 43.957779 -12.784460 0.257884 -25.149528 -20.151324 17.724952 21.615148 4.413567 5.243042 4.316830 -49.615566 28.606736 29.672681 18.311882 -11.265702 -37.685033
40.952906 88.601855 -117.645434 5.004264 -6.598981 -25.405454 -15.136365 23.385649 182.136720 -5.625007 8.939310 -149.011327 -42.983251 7.044994 0.350241 9.780418 96.586989 -15.333361 2.514626 -104.551201 -43.542866 22.372782 -24.960513 -37.873764 -65.488639 -55.296826 -115.214896 260.317224 325.465508 235.670104 501.362769 -17.149345 708.752174 70.890308 122.203122 -15.648904 -31.990461 -22.181599 18.460721 15.968279 -10.721042 -60.035717 -20.073543 -0.131402 60.179786 -33.126940 6.415842 43.490403 -17.094840 -0.238576 -26.876468 -18.541040 15.380000 19.097844 5.314961 12.826644 2.095431 -49.043750 28.456551 29.676376 18.047696 -15.917971 -37.747020
40.057158 86.612052 -118.192003 5.298176 -6.574094 -22.058275 -18.465153 29.005266 181.016966 -2.489072 10.294887 -150.773516 -41.402544 9.917736 1.216316 10.023195 89.118690 -12.977313 -0.891118 -106.153475 -43.918550 20.107063 -25.375720 -37.802372 -70.579773 -51.421175 -111.286574 265.166604 325.315080 234.496158 498.962367 -16.402819 709.236789 69.353966 123.517209 -10.190232 -30.233098 -20.560836 21.728353 14.849067 -13.991624 -58.094898 -21.926659 4.446104 57.084706 -31.065739 5.959343 42.944763 -21.420727 -1.117007 -28.576250 -16.866201 12.498461 17.265098 6.889306 19.881494 0.887954 -48.548076 27.334767 29.043347 14.813354 -6.680435 -45.553605
38.989281 84.429339 -118.900383 4.660599 -6.979286 -18.906715 -21.094387 33.925068 180.738840 -0.293947 12.053168 -152.912568 -39.900514 13.239077 2.791819 10.107940 81.572054 -15.024608 -1.576423 -103.076236 -43.317353 19.425972 -22.364952 -43.489522 -65.443662 -63.203046 -101.380006 271.483928 325.159078 233.101789 497.643321 -14.878626 709.301102 68.021656 124.092052 -6.740440 -31.429542 -17.344031 26.144315 14.956234 -17.086188 -53.806127 -23.771756 10.262418 51.764757 -29.139243 5.201096 42.416988 -25.774298 -2.316676 -30.503953 -15.094904 10.646850 13.442279 9.239120 26.683116 -0.326932 -48.791091 26.264857 26.026576 15.348135 -22.678088 -44.756549
37.813582 81.849297 -119.902819 3.836224 -7.128441 -15.133403 -21.704246 37.937189 184.172527 -1.268027 13.005369 -151.657110 -37.474888 15.471258 3.842382 4.587646 78.793616 -15.051673 -1.314741 -91.577134 -54.553062 15.351311 -24.598858 -47.805843 -74.859399 -46.778422 -112.499868 273.602871 332.316898 238.574983 500.519213 -12.764536 715.142499 65.834431 126.666787 -2.883940 -28.097820 -27.425718 16.540220 15.740728 -20.336543 -46.793425 -24.410406 16.950684 43.327394 -27.086782 4.566942 42.052945 -29.985767 -3.688582 -32.853019 -12.742560 8.668716 7.638855 10.724218 33.799703 2.569272 -47.747168 26.211770 23.788359 8.738518 -13.473709 -45.051747
36.630172 79.264406 -121.036995 3.010258 -5.012099 -13.636576 -30.227528 45.123723 186.673195 -2.053355 16.152248 -154.026462 -34.389511 15.982238 4.427349 1.481287 67.819674 -17.556284 -1.485944 -89.367643 -54.043984 12.101667 -23.818251 -52.485793 -67.075039 -61.776554 -98.598548 280.033166 330.917502 237.680502 495.560605 -14.475758 714.198403 72.252733 126.382091 -2.523248 -29.408489 -12.257876 28.516668 17.604025 -25.003898 -36.150026 -21.652162 24.774416 31.515309 -25.082212 4.035882 42.842628 -34.312569 -5.750638 -35.266609 -8.917294 3.607864 0.468179 0.303146 41.517325 20.600260 -44.633217 27.162114 23.007987 5.427520 -28.281609 -53.218689
35.426318 76.614860 -122.381027 7.025347 -7.641254 -12.966958 -37.833313 51.801719 193.007144 0.564927 18.627343 -153.168508 -29.792728 14.999085 4.437008 -1.101066 60.436246 -21.185449 -0.001329 -86.705994 -53.908310 9.366423 -20.669425 -57.938295 -73.200257 -49.400982 -106.075713 278.802912 326.335647 237.090510 489.529930 -17.592803 712.932140 70.625187 133.621026 -3.811004 -25.788629 -29.353496 13.299757 15.704905 -28.198023 -25.732815 -19.885647 34.189762 15.458209 -23.953296 6.424339 42.019553 -37.201663 -6.507841 -38.153358 -5.442686 -7.311765 -1.227857 -36.708380 57.561406 67.672831 -52.891400 29.071727 28.266157 3.887972 -24.682962 -44.292267
34.110500 74.082588 -123.776262 3.489175 -8.992479 -1.678697 -40.674019 60.032220 194.342064 -1.974468 18.399568 -155.918397 -25.068836 13.087318 4.028498 -3.220333 54.212984 -22.730113 1.235903 -84.654895 -54.261960 5.847205 -16.114226 -63.011910 -78.083371 -52.882658 -100.696229 281.219952 321.883566 233.735494 481.457904 -21.048806 715.237957 71.575451 135.863924 1.629577 -31.279350 -19.373616 19.625666 18.129511 -31.875926 -19.288879 -13.963324 37.565180 -0.439319 -21.981642 5.407404 41.324123 -39.997185 -7.490768 -41.517260 -9.752720 -9.402876 20.434008 -129.009091 130.451777 123.882433 -63.766387 34.534502 29.556424 18.907535 -35.324868 -53.079268
32.868533 71.719808 -125.245407 1.463648 -6.870066 3.187267 -46.921982 69.165344 197.639897 -2.330861 18.023548 -154.688950 -19.723720 17.295948 2.801087 -8.433238 44.997877 -24.228621 -0.522892 -81.610686 -57.923098 2.166646 -15.204064 -68.075696 -82.295214 -46.679599 -106.122083 282.282074 317.416813 232.391504 473.618650 -28.512770 709.960243 72.085844 136.636855 8.945320 -27.129073 -25.148873 21.396210 20.682619 -35.350713 -9.887853 -9.450611 35.531843 -11.706050 -19.747079 2.369640 42.925987 -43.445040 -9.582858 -43.512564 -6.276401 -12.886831 23.880795 -140.040530 140.436339 120.928363 -59.988732 49.998047 24.333240 16.274693 -32.026784 -59.551873
31.877577 69.675387 -126.735485 2.478962 -2.814137 2.890543 -52.762764 71.015546 203.987028 -2.408123 20.116625 -150.771631 -17.554752 21.059635 1.797879 -10.049106 44.818356 -26.602248 -0.663724 -81.923884 -55.870531 0.804722 -12.227032 -66.852006 -86.320470 -48.033640 -108.135541 282.440234 320.916220 238.805816 472.857985 -37.923235 710.320822 69.622570 137.359134 13.382543 -32.093164 -22.863162 24.953763 23.185104 -39.753829 -1.463151 -6.609745 35.931761 -21.024511 -17.508387 0.981197 43.267462 -45.398013 -10.469151 -45.452061 -5.600153 -21.585723 27.154168 -144.782949 139.430799 125.366155 -65.905001 58.932668 22.635501 27.451563 -33.782546 -65.754457
